<svg xmlns="http://www.w3.org/2000/svg" xmlns:xlink="http://www.w3.org/1999/xlink" width="237.017" height="66.187" viewBox="0 0 237.017 66.187">
  <defs>
    <clipPath id="clip-path">
      <rect id="Rectangle_2" data-name="Rectangle 2" width="237.017" height="66.187" fill="none"/>
    </clipPath>
  </defs>
  <g id="Group_2" data-name="Group 2" transform="translate(-3.416 -2.247)">
    <g id="Group_1" data-name="Group 1" transform="translate(3.416 2.247)" clip-path="url(#clip-path)">
      <path id="Path_1" data-name="Path 1" d="M225,36.754a25.607,25.607,0,0,0-4.331-13.746c-3.852-5.594-9.172-8.806-16-8.811q-90.425-.087-180.854-.027a15.213,15.213,0,0,0-2.3.169c-7.24,1.1-12.274,5.174-15.464,11.643a27.092,27.092,0,0,0-2.63,12.9A25.956,25.956,0,0,0,7.573,52.815,19.007,19.007,0,0,0,21.648,61.75c2.364.28,4.776.162,7.166.256a1.37,1.37,0,0,1,.846.348,30.72,30.72,0,0,0,11.759,7.281c.536.191,1.08.363,1.626.523.52.154,1.047.281,1.762.471a22,22,0,0,1-5.986-8.637h.921q81.858,0,163.718-.019a23.533,23.533,0,0,0,4.771-.445c6.619-1.378,11.19-5.392,14.134-11.354A27.232,27.232,0,0,0,225,36.754" transform="translate(-3.416 -8.497)" fill="#243066"/>
      <path id="Path_2" data-name="Path 2" d="M261.738,133.379l-2.284-3.582,2.185-3.427h-1.054l-2.1,3.362h-.022v-3.362H257.5v7.009h.965v-3.35h.022l2.066,3.35Zm-6.815-5.042a.982.982,0,0,1-.955,1.109h-.638v-2.23h.638a1,1,0,0,1,.955,1.121m1.846,5.042-1.835-3.318a1.983,1.983,0,0,0-.824-3.692h-1.735v7.009h.956v-3.11h.626l1.692,3.11Zm-6.6-3.494c0,1.735-.955,2.746-1.912,2.746-.977,0-1.921-1.012-1.921-2.746s.943-2.746,1.921-2.746c.957,0,1.912,1.01,1.912,2.746m1-.022c0-2.2-1.341-3.615-2.912-3.615s-2.92,1.418-2.92,3.615,1.339,3.625,2.92,3.625,2.912-1.418,2.912-3.625m-6.332-3.494h-.889l-.858,3.306c-.119.452-.275,1.088-.384,1.648h-.022c-.109-.57-.262-1.186-.384-1.648l-.9-3.306h-.878l-.9,3.306c-.133.473-.274,1.078-.386,1.648h-.022c-.1-.57-.263-1.175-.384-1.648l-.868-3.306h-.965l1.911,7.074h.494l1.032-3.712c.144-.517.307-1.143.473-1.868h.022c.164.725.319,1.341.461,1.868l1.034,3.712h.493Zm-8.5.846v-.846H231.86v.846h1.747v6.163h.978v-6.163Zm-4.926,6.163v-.846H229v-2.252h1.779v-.846H229v-2.22h2.12v-.846h-3.1v7.009Zm-4.852.1v-7.108H225.6V129.7c0,.495,0,1.121.022,1.66h-.012c-.319-.527-.78-1.209-1.1-1.67l-2.251-3.318h-.78v7.009h.945V129.9c0-.515,0-1.12-.022-1.747l.022-.01c.351.572.8,1.252,1.186,1.812l2.439,3.528Zm-8.514-1.967c0-1.066-.6-1.648-1.549-2.3-.581-.406-.878-.747-.878-1.208a.829.829,0,0,1,.89-.858,1.712,1.712,0,0,1,1,.319l.186-.824a2.085,2.085,0,0,0-1.207-.339,1.684,1.684,0,0,0-1.814,1.745c0,.89.484,1.462,1.44,2.088.681.45.955.846.955,1.44a.935.935,0,0,1-1.022.977,2.381,2.381,0,0,1-1.482-.517l.1,1.01a2.514,2.514,0,0,0,1.406.386,1.789,1.789,0,0,0,1.977-1.922m-4.244,1.868v-.846H211.39v-2.252h1.779v-.846H211.39v-2.22h2.12v-.846h-3.1v7.009Zm-4.666,0-.517-7.009h-.747l-1.383,3.6c-.22.561-.462,1.274-.626,1.813h-.022c-.165-.539-.428-1.274-.638-1.813l-1.405-3.6h-.77l-.5,7.009h.869l.22-3.33c.033-.46.065-1.064.077-1.658h.022c.175.539.416,1.208.592,1.68l1.252,3.34h.506l1.23-3.34c.175-.473.428-1.163.593-1.7h.022c.01.571.043,1.187.077,1.68l.23,3.33Zm-8.575-3.494c0,1.735-.957,2.746-1.912,2.746-.977,0-1.922-1.012-1.922-2.746s.945-2.746,1.922-2.746c.955,0,1.912,1.01,1.912,2.746m1-.022c0-2.2-1.341-3.615-2.912-3.615s-2.922,1.418-2.922,3.615,1.341,3.625,2.922,3.625,2.912-1.418,2.912-3.625m-6.393-3.2a3.034,3.034,0,0,0-1.582-.362c-1.472,0-2.932,1.262-2.932,3.569,0,2.286,1.438,3.56,2.932,3.56a2.838,2.838,0,0,0,1.385-.264l.087-.9a2.473,2.473,0,0,1-1.319.309c-1.1,0-2.086-.989-2.086-2.692s1-2.692,2.076-2.692a2.451,2.451,0,0,1,1.284.352Zm-4.876.549v-.846h-4.471v.846h1.747v6.163h.978v-6.163Zm-5.336,4.152v-5h-.956v4.889a1.352,1.352,0,1,1-2.7,0v-4.889h-.977v5a2.328,2.328,0,0,0,4.637,0m-6.827-1.482c0,1.735-.956,2.746-1.911,2.746-.977,0-1.922-1.012-1.922-2.746s.945-2.746,1.922-2.746c.955,0,1.911,1.01,1.911,2.746m1-.022c0-2.2-1.339-3.615-2.91-3.615s-2.922,1.418-2.922,3.615,1.341,3.625,2.922,3.625,2.91-1.418,2.91-3.625m-10.094.022c0,1.868-.989,2.658-2.175,2.658h-.638v-5.328h.638c1.186,0,2.175.8,2.175,2.67m1.01-.012c0-2.373-1.45-3.5-3.043-3.5h-1.757v7.009h1.757c1.593,0,3.043-1.133,3.043-3.505m-5.66,3.505v-.846h-2.405v-2.252h1.779v-.846h-1.779v-2.22h2.119v-.846h-3.1v7.009Zm-5.96-5.042a.982.982,0,0,1-.955,1.109h-.637v-2.23h.637a1,1,0,0,1,.955,1.121m1.846,5.042-1.834-3.318a1.984,1.984,0,0,0-.824-3.692h-1.735v7.009h.955v-3.11h.626l1.69,3.11Zm-5.254,0v-.846h-2.4v-2.252h1.779v-.846H152.6v-2.22h2.12v-.846h-3.1v7.009Zm-4.242-6.163v-.846H146.3v.846h1.747v6.163h.978v-6.163Zm-5.331,6.262v-7.108h-.955V129.7c0,.495,0,1.121.02,1.66h-.01c-.319-.527-.78-1.209-1.1-1.67l-2.251-3.318h-.78v7.009h.945V129.9c0-.515,0-1.12-.022-1.747l.022-.01c.351.572.8,1.252,1.186,1.812l2.439,3.528Zm-5.935-.1v-.846h-2.407v-2.252h1.781v-.846h-1.781v-2.22h2.12v-.846h-3.1v7.009Zm-4.384-6.712a3.044,3.044,0,0,0-1.583-.362c-1.472,0-2.933,1.262-2.933,3.569,0,2.286,1.44,3.56,2.933,3.56a2.839,2.839,0,0,0,1.385-.264l.087-.9a2.47,2.47,0,0,1-1.319.309c-1.1,0-2.086-.989-2.086-2.692s1-2.692,2.076-2.692a2.451,2.451,0,0,1,1.284.352Zm-7.448.549v-.846H123.2v.846h1.747v6.163h.977v-6.163Zm-5.331,6.262v-7.108h-.955V129.7c0,.495,0,1.121.02,1.66h-.01c-.319-.527-.78-1.209-1.1-1.67l-2.251-3.318h-.78v7.009h.945V129.9c0-.515,0-1.12-.022-1.747l.022-.01c.351.572.8,1.252,1.186,1.812l2.439,3.528Zm-5.935-.1v-.846H114v-2.252h1.781v-.846H114v-2.22h2.12v-.846h-3.1v7.009Zm-4.88-7.009h-.977v7.008h.977Zm-1.877.846v-.846h-4.471v.846h1.747v6.163h.977v-6.163Zm-6.08,3.538h-1.516l.527-1.857c.077-.275.165-.626.22-.923h.022c.065.3.141.648.218.923Zm1.834,2.626-2.3-7.074h-.55l-2.284,7.074h.933l.582-1.824h2.056l.57,1.824Zm-6.174-5.042a.982.982,0,0,1-.955,1.109h-.737v-2.23h.737a1,1,0,0,1,.955,1.121m1-.022a1.833,1.833,0,0,0-1.813-1.945H96.57v7.009h.965v-3.11h.879a1.842,1.842,0,0,0,1.813-1.955" transform="translate(-52.286 -67.301)" fill="#fff"/>
      <path id="Path_3" data-name="Path 3" d="M141.753,49.378h-6.376c1.085-2.74,2.161-5.459,3.2-8.077,1.029,2.612,2.092,5.314,3.178,8.077m7.212,8.7c-.073-.2-.111-.316-.159-.428q-4.682-11.146-9.351-22.3c-.225-.539-.6-.36-.952-.418-.44-.07-.6.162-.755.524q-4.109,9.82-8.236,19.629c-.4.962-.807,1.922-1.254,2.99,1.045,0,1.982-.019,2.917.01a.654.654,0,0,0,.728-.484c.664-1.645,1.371-3.272,2.027-4.92a.7.7,0,0,1,.78-.505c2.569.017,5.14.022,7.709,0a.733.733,0,0,1,.807.558c.654,1.626,1.336,3.239,2.027,4.85.082.191.28.467.434.473,1.068.041,2.135.022,3.28.022" transform="translate(-68.91 -19.391)" fill="#fff"/>
      <path id="Path_4" data-name="Path 4" d="M60.051,43.191Q56.323,50.543,52.59,57.9a1.124,1.124,0,0,1-1.51.7c-.169-.049-.321-.271-.411-.449q-3.718-7.29-7.417-14.59c-.057-.113-.115-.227-.225-.449-.436,5.162-.863,10.208-1.293,15.292H38.619c.653-7.584,1.3-15.139,1.961-22.768.683,0,1.313-.025,1.94.019.159.01.36.218.445.384q4.309,8.426,8.6,16.864c.029.055.072.1.143.207.623-1.305,1.2-2.585,1.834-3.837Q56.9,42.648,60.3,36.045a.924.924,0,0,1,.645-.389,16.962,16.962,0,0,1,1.735-.019c.679,7.594,1.356,15.165,2.037,22.775H61.378q-.665-7.636-1.327-15.222" transform="translate(-21.884 -19.758)" fill="#fff"/>
      <path id="Path_5" data-name="Path 5" d="M349.419,46.257A8.57,8.57,0,1,1,332.3,46.5a8.563,8.563,0,1,1,17.122-.244m-7.567-11.578c-6.391-.459-12.835,3.9-13.077,11.424-.223,6.924,4.938,12.025,11.753,12.241a11.852,11.852,0,0,0,1.324-23.665" transform="translate(-174.102 -19.244)" fill="#fff"/>
      <path id="Path_6" data-name="Path 6" d="M419.04,54.016a2.975,2.975,0,0,1-3.063,2.8,2.915,2.915,0,0,1-3.09-2.752,3.095,3.095,0,0,1,6.153-.051m-3.514,10.593c.84.247,1.687.473,2.51.768a4.85,4.85,0,0,1,1.325.7,2.261,2.261,0,0,1,.032,3.674,5.246,5.246,0,0,1-3.326,1.051,5.186,5.186,0,0,1-3.313-1.041,2.84,2.84,0,0,1-.694-3.674,3.063,3.063,0,0,1,3.466-1.476m7.453-13.783c-.14-.773-.341-1.535-.532-2.349a7.171,7.171,0,0,1-4.342.4,12.519,12.519,0,0,0-3.061-.21A5.278,5.278,0,0,0,410.18,52.3a5.209,5.209,0,0,0,1.716,5.861,2.738,2.738,0,0,0,.4.239,3.811,3.811,0,0,0-1.742,2.028.873.873,0,0,0,.26,1.054c.432.363.82.776,1.245,1.184a2.793,2.793,0,0,1-.287.188,5.24,5.24,0,0,0-.424,9.3,9.025,9.025,0,0,0,9.636-.026,5.008,5.008,0,0,0,1.022-7.746,7.756,7.756,0,0,0-3.266-1.9c-1.408-.488-2.822-.957-4.215-1.479-.242-.09-.58-.426-.556-.609a1.164,1.164,0,0,1,.581-.67,2.055,2.055,0,0,1,.831-.152c.568-.048,1.139-.053,1.706-.114a5.331,5.331,0,0,0,4.9-5.009,16.445,16.445,0,0,0-.293-2.838,5.56,5.56,0,0,0,.991-.273.62.62,0,0,0,.3-.508" transform="translate(-216.051 -26.5)" fill="#fff"/>
      <path id="Path_7" data-name="Path 7" d="M190.367,57.563a5.514,5.514,0,0,1-.52,2.208,5.317,5.317,0,0,1-.873,1.294,6.44,6.44,0,0,1-.609.585,4.747,4.747,0,0,1-1.632.875,5.7,5.7,0,0,1-5.358-1.012,1.034,1.034,0,0,1-.268-.684c-.014-.6-.017-1.206-.015-1.81s0-1.206,0-1.808c0-1.163-.024-2.325.017-3.487a1.244,1.244,0,0,1,.362-.836,6.593,6.593,0,0,1,.605-.45,9.024,9.024,0,0,1,2.624-.872c.223-.041-.23.01,0,0a5.685,5.685,0,0,1,.7.012,6.207,6.207,0,0,1,1.433.3,5.2,5.2,0,0,1,1.3.629,4.841,4.841,0,0,1,1.938,2.728,6.508,6.508,0,0,1,.169.713,7.614,7.614,0,0,1,.128,1.613m1.013-6.4a8.2,8.2,0,0,0-10.6-.965c-.059-.372-.116-.727-.174-1.08h-2.724V73.5h3.209v-8.8a8.788,8.788,0,0,0,11.2-2.7,9.063,9.063,0,0,0-.914-10.849" transform="translate(-94.945 -26.611)" fill="#fff"/>
      <path id="Path_8" data-name="Path 8" d="M266.962,61.236c0,.009,0,.015-.005.022a.034.034,0,0,0,.014-.007Zm-2.846-7.85a2.945,2.945,0,0,1,.339,1.916h-7.98a4.607,4.607,0,0,1,.919-2.088c.16-.219.087-.108.293-.3.1-.1.56-.447.67-.536a1.344,1.344,0,0,1,.374-.229c.126-.071.664-.3.8-.365a1.286,1.286,0,0,1,.418-.131,4.444,4.444,0,0,1,1.294-.148,3.176,3.176,0,0,1,.735.116c.942.268,1.324.372,1.754,1.184Zm3.316-.65a7.041,7.041,0,0,0-8.016-3.932c-6.167,1.276-8.1,7.988-5.609,12.48,2.605,4.7,8.308,5.194,12.153,3.494.128-.058.3-.174.324-.29.241-1.071.452-2.151.672-3.229-.186.1-.379.19-.56.3a8.2,8.2,0,0,1-6.139,1.008,5.161,5.161,0,0,1-4.043-4.548,2.068,2.068,0,0,1,.254-.031c2.547,0,5.1-.08,7.641.029a3.211,3.211,0,0,0,3.1-1.327c.183-.261.483-.5.532-.785a5.681,5.681,0,0,0-.314-3.166" transform="translate(-134.223 -26.589)" fill="#fff"/>
      <path id="Path_9" data-name="Path 9" d="M295.817,62.617a2.374,2.374,0,0,1-3.311-1.164,2.4,2.4,0,0,1,1.733-3.113,16.915,16.915,0,0,1,2.591-.367c.476-.056.957-.078,1.467-.118.261,2.426-.563,3.978-2.481,4.761m7.636.983a2.427,2.427,0,0,1-1.842-2.724c-.01-2.151.008-4.3-.005-6.453a5.339,5.339,0,0,0-4.623-5.6,9.215,9.215,0,0,0-4.237.154c-.915.247-1.793.636-2.7.967.256,1.032.471,1.907.7,2.827A8.5,8.5,0,0,1,295.6,51.5a2.525,2.525,0,0,1,2.642,1.926c.1.531.1,1.082.154,1.7-.824.077-1.52.135-2.214.2a10.127,10.127,0,0,0-4.381,1,4.84,4.84,0,0,0-2.523,5.015A4.737,4.737,0,0,0,292.73,65.4a5.758,5.758,0,0,0,6.244-1.728,3.342,3.342,0,0,0,1.945,1.854.732.732,0,0,0,.592-.024c.658-.6,1.277-1.24,1.943-1.9" transform="translate(-153.364 -26.591)" fill="#fff"/>
      <path id="Path_10" data-name="Path 10" d="M219.636,65.265H216.41V49.133h2.829c.049.461.1.906.154,1.423a2.63,2.63,0,0,0,.368-.277c1.754-1.987,5.94-1.931,7.888-.824a5.139,5.139,0,0,1,2.828,4.461c.1,3.729.041,7.463.045,11.2a.525.525,0,0,1-.053.148h-3.234v-.754c0-3.052-.075-6.107.022-9.155.087-2.733-1.745-4.156-4.507-3.782a3.375,3.375,0,0,0-3.113,3.666q0,4.644,0,9.288Z" transform="translate(-115.157 -26.611)" fill="#fff"/>
      <path id="Path_11" data-name="Path 11" d="M96.675,72.193c.548-.259.927-.426,1.292-.616a11.412,11.412,0,0,0,4.837-5.39c.915-1.814.908-1.819.136-3.7q-2.528-6.172-5.058-12.343c-.072-.178-.132-.358-.232-.637,1.091,0,2.114-.02,3.134.022.155.005.36.28.438.471q2.067,5.118,4.108,10.247c.022.056.048.113.092.22.689-1.727,1.358-3.412,2.037-5.094.72-1.788,1.464-3.565,2.168-5.36a.672.672,0,0,1,.761-.519c.831.032,1.663.009,2.591.009-.237.6-.445,1.143-.665,1.68-2,4.86-3.965,9.737-6.02,14.575a16.414,16.414,0,0,1-4.827,6.721,20.209,20.209,0,0,1-2.33,1.469.613.613,0,0,1-.561-.007c-.629-.537-1.222-1.115-1.9-1.748" transform="translate(-52.341 -27.033)" fill="#fff"/>
      <path id="Path_12" data-name="Path 12" d="M387.536,49.324h3.06c.041.739.078,1.452.126,2.322,1.323-2.1,3.3-2.537,5.51-2.552.206.929.4,1.824.6,2.7a18.9,18.9,0,0,0-1.969.27,5.1,5.1,0,0,0-4.041,5.036c-.077,2.5-.029,5-.036,7.506,0,.263,0,.526,0,.846h-3.249Z" transform="translate(-204.933 -26.824)" fill="#fff"/>
      <path id="Path_13" data-name="Path 13" d="M324.814,79.25a1.223,1.223,0,0,1,1.252-1.3,1.287,1.287,0,0,1,1.346,1.3,1.345,1.345,0,0,1-1.31,1.307,1.3,1.3,0,0,1-1.288-1.3" transform="translate(-172.028 -41.96)" fill="#fff"/>
      <path id="Path_14" data-name="Path 14" d="M447.217,61.233a29.666,29.666,0,0,0,12.24-15.866c3.065-9.771.916-18.539-6.008-26.086a25.521,25.521,0,0,0-7.516-5.693.28.28,0,0,1-.165-.181c8.613.314,15.532,3.879,20.059,11.258,5.117,8.338,5.106,16.991.024,25.349-4.2,6.914-10.631,10.5-18.633,11.218" transform="translate(-235.482 -8.102)" fill="#faa61f"/>
      <path id="Path_15" data-name="Path 15" d="M477.88,2.246c.276.894.535,1.793.85,2.674.044.123.349.208.537.215.81.022,1.621.009,2.6.009-.73.555-1.331,1.043-1.967,1.479a.647.647,0,0,0-.295.916c.3.725.529,1.479.858,2.423-.952-.657-1.742-1.2-2.581-1.781-.754.563-1.52,1.134-2.288,1.706l-.135-.06c.164-.566.317-1.136.49-1.7.326-1.068.331-1.066-.592-1.715-.465-.329-.931-.657-1.4-.989-.027-.019-.032-.067-.106-.225.856,0,1.658-.017,2.458.007a.586.586,0,0,0,.692-.51c.215-.824.488-1.632.739-2.448Z" transform="translate(-250.22 -2.247)" fill="#faa61f"/>
      <path id="Path_16" data-name="Path 16" d="M493.953,20.056c.09.763-.041,1.573.3,2.006.324.407,1.148.418,1.861.636-.343.131-.577.222-.812.309-1.25.462-1.25.46-1.114,1.8.017.173.019.347.039.734-.407-.5-.718-.841-.983-1.216a.608.608,0,0,0-.88-.258c-.408.194-.851.31-1.469.525.376-.564.626-.987.923-1.375a.489.489,0,0,0-.016-.737c-.332-.376-.619-.79-1.022-1.313a16.459,16.459,0,0,0,1.639.425.794.794,0,0,0,.629-.233,14.769,14.769,0,0,0,.9-1.3" transform="translate(-259.099 -11.59)" fill="#faa61f"/>
    </g>
  </g>
</svg>
